# xmcd
#
# Track frame offsets: 
#        150
#        16912
#        34485
#        49595
#        67047
#        85542
#        101247
#        114235
#        134857
#        149487
#        162915
#
# Disc length: 2479 seconds
#
# Revision: 1
# Processed by: cddbd v1.5.2PL0 Copyright (c) Steve Scherf et al.
# Submitted via: ExactAudioCopy v1.3
#
DISCID=9b09ad0b
DTITLE=南佳孝 - SOUTH OF THE BORDER
DYEAR=1978
DGENRE=Blues
TTITLE0=夏の女優
TTITLE1=プールサイド
TTITLE2=朝焼けにダンス
TTITLE3=日付変更線
TTITLE4=常夜灯
TTITLE5=夜間飛行
TTITLE6=ワンナイト・ヒーロー
TTITLE7=ブルー・メロディー
TTITLE8=早くあいつに逢いたい
TTITLE9=スフィンクスの夢
TTITLE10=終末のサンバ
EXTD=YEAR: 1978 ID3G:   0
EXTT0=
EXTT1=
EXTT2=
EXTT3=
EXTT4=
EXTT5=
EXTT6=
EXTT7=
EXTT8=
EXTT9=
EXTT10=
PLAYORDER=
